<?xml version="1.0" encoding="UTF-8"?>
<svg id="Layer_2" data-name="Layer 2" xmlns="http://www.w3.org/2000/svg" viewBox="0 0 1068.72 227.43">
  <defs>
    <style>
      .cls-1 {
        fill: #4b73f2;
      }

      .cls-1, .cls-2 {
        stroke-width: 0px;
      }

      .cls-2 {
        fill: #fff;
      }
    </style>
  </defs>
  <g id="Layer_1-2" data-name="Layer 1">
    <g>
      <g>
        <path class="cls-2" d="m929.64,115.3v-36.56c0-2.01,1.63-3.64,3.64-3.64h15.66c2.01,0,3.64,1.63,3.64,3.64v36.01c0,7.16,3.03,8.35,7.8,8.35,4.31,0,6.97-1.83,6.97-8.35v-36.01c0-2.01,1.63-3.64,3.64-3.64h15.66c2.01,0,3.64,1.63,3.64,3.64v36.56c0,20.74-9.73,30.01-31.21,30.01s-29.46-7.8-29.46-30.01Z"/>
        <path class="cls-2" d="m1005.87,75.1h16.58c2.01,0,3.64,1.63,3.64,3.64v61.55c0,2.01-1.63,3.64-3.64,3.64h-16.58c-2.01,0-3.64-1.63-3.64-3.64v-61.55c0-2.01,1.63-3.64,3.64-3.64Z"/>
      </g>
      <g>
        <path class="cls-2" d="m172.37,163.28l-1.63-27.39c-.22-3.74,3.48-6.41,6.99-5.11,11.04,4.09,25.74,6.79,39.36,6.79,7.56,0,10.09-1.05,10.09-3.57,0-2.1-1.68-3.36-16.18-6.51l-3.78-.84c-23.96-5.25-34.25-15.55-34.25-34.88,0-26.48,17.65-39.71,55.05-39.71,12.69,0,26.07,2.05,35.81,5.84,1.87.73,3.13,2.49,3.25,4.5l1.67,28.61c.21,3.64-3.3,6.31-6.76,5.18-11.24-3.68-25.85-6.3-35.22-6.3-6.93,0-9.03,1.26-9.03,3.57,0,2.1,1.05,3.15,15.55,6.3l4.83,1.05c29.42,6.3,35.93,19.12,35.93,34.04,0,28.16-23.32,40.55-55.26,40.55-15.84,0-31.69-2.67-43.28-7.67-1.8-.78-3.01-2.49-3.13-4.45Z"/>
        <path class="cls-2" d="m343.39,174.55c-30.89,0-49.38-10.3-49.38-55.26v-19.44c0-2.84-2.3-5.15-5.15-5.15h0c-2.84,0-5.15-2.3-5.15-5.15v-29.63c0-2.84,2.3-5.15,5.15-5.15h0c2.84,0,5.15-2.3,5.15-5.15v-19.12c0-2.84,2.3-5.15,5.15-5.15h40.13c2.84,0,5.15,2.3,5.15,5.15v19.12c0,2.84,2.3,5.15,5.15,5.15h7.99c2.84,0,5.15,2.3,5.15,5.15v29.63c0,2.84-2.3,5.15-5.15,5.15h-7.99c-2.84,0-5.15,2.3-5.15,5.15v18.81c0,7.56,3.36,10.72,11.56,10.72.37,0,.72,0,1.06,0,3.03-.01,5.42,2.55,5.18,5.57l-2.77,33.86c-.19,2.31-1.9,4.24-4.19,4.64-4.2.74-8.35,1.11-11.89,1.11Z"/>
        <path class="cls-2" d="m429.75,115.03v52.27c0,2.84-2.3,5.15-5.15,5.15h-40.13c-2.84,0-5.15-2.3-5.15-5.15V59.92c0-2.84,2.3-5.15,5.15-5.15h30.21c1.56,0,3.03.7,4.01,1.92l5.25,6.51c1.91,2.37,5.43,2.54,7.63.42,7.33-7.03,14.68-9.88,21.57-10.79,3.08-.41,5.82,2,5.82,5.11v45.29c0,2.73-2.14,5-4.87,5.14-6.7.34-13.12.81-19.72,1.54-2.62.29-4.61,2.49-4.61,5.12Z"/>
        <path class="cls-2" d="m563.93,166.91c-1.84-1.82-4.7-1.91-6.76-.34-7.2,5.51-16.35,8.6-27.33,8.6-24.58,0-57.55,3.81-57.55-53.8s9.08-69.54,51.32-69.54c14.11,0,26.73,3.54,37.38,9.86,2.16,1.28,4.92.82,6.54-1.1l3.37-3.99c.98-1.16,2.42-1.83,3.93-1.83h18.41c2.89,0,5.21,2.37,5.15,5.26l-2.3,107.38c-.06,2.8-2.35,5.04-5.15,5.04h-19.32c-1.36,0-2.66-.54-3.62-1.49l-4.07-4.04Zm-22.59-33.76c1.19,0,2.29-.07,3.33-.22,2.48-.36,4.32-2.49,4.37-5l.61-29.9c.05-2.56-1.79-4.79-4.32-5.2-1.99-.32-4-.45-6.04-.45-17.65,0-19.31,9.09-19.31,23.96s9.6,16.81,21.37,16.81Z"/>
        <path class="cls-2" d="m797.84,166.91c-1.84-1.82-4.7-1.91-6.76-.34-7.2,5.51-16.35,8.6-27.33,8.6-24.58,0-57.55,3.81-57.55-53.8s9.08-69.54,51.32-69.54c14.11,0,26.73,3.54,37.38,9.86,2.16,1.28,4.92.82,6.54-1.1l3.37-3.99c.98-1.16,2.42-1.83,3.93-1.83h18.41c2.89,0,5.21,2.37,5.15,5.26l-2.3,107.38c-.06,2.8-2.35,5.04-5.15,5.04h-19.32c-1.36,0-2.66-.54-3.62-1.49l-4.07-4.04Zm-22.59-33.76c1.19,0,2.29-.07,3.33-.22,2.48-.36,4.32-2.49,4.37-5l.61-29.9c.05-2.56-1.79-4.79-4.32-5.2-1.99-.32-4-.45-6.04-.45-17.65,0-19.31,9.09-19.31,23.96s9.6,16.81,21.37,16.81Z"/>
        <path class="cls-2" d="m669.5,174.55c-30.89,0-49.38-10.3-49.38-55.26v-19.44c0-2.84-2.3-5.15-5.15-5.15h0c-2.84,0-5.15-2.3-5.15-5.15v-29.63c0-2.84,2.3-5.15,5.15-5.15h0c2.84,0,5.15-2.3,5.15-5.15v-19.12c0-2.84,2.3-5.15,5.15-5.15h40.13c2.84,0,5.15,2.3,5.15,5.15v19.12c0,2.84,2.3,5.15,5.15,5.15h7.99c2.84,0,5.15,2.3,5.15,5.15v29.63c0,2.84-2.3,5.15-5.15,5.15h-7.99c-2.84,0-5.15,2.3-5.15,5.15v18.81c0,7.56,3.36,10.72,11.56,10.72.37,0,.72,0,1.06,0,3.03-.01,5.42,2.55,5.18,5.57l-2.77,33.86c-.19,2.31-1.9,4.24-4.19,4.64-4.2.74-8.35,1.11-11.89,1.11Z"/>
      </g>
      <path class="cls-2" d="m1049.42,185.26h-143.11c-10.64,0-19.3-8.66-19.3-19.3V54.45c0-10.64,8.66-19.3,19.3-19.3h143.11c10.64,0,19.3,8.66,19.3,19.3v111.52c0,10.64-8.66,19.3-19.3,19.3Zm-138.74-131.91c-3.02,0-5.46,2.45-5.46,5.46v102.78c0,3.02,2.45,5.46,5.46,5.46h134.37c3.02,0,5.46-2.45,5.46-5.46V58.82c0-3.02-2.45-5.46-5.46-5.46h-134.37Z"/>
      <g>
        <path class="cls-1" d="m99.29,65.74h0c-2.22.68-3.74,2.72-3.74,5.04,0,11.17,0,42.51,0,43.07-.18,24.29-9.67,47.27-26.72,64.7-17.01,17.4-39.64,27.34-63.71,28.01h0c-2.85.08-5.12,2.41-5.12,5.27v10.33c0,2.96,2.44,5.34,5.4,5.27h0c29.58-.74,57.38-12.91,78.26-34.27,20.92-21.39,32.56-49.62,32.76-79.51v-44.68c0-3.03-2.56-5.44-5.59-5.26h0c-4.04.24-7.93.92-11.55,2.03Z"/>
        <path class="cls-1" d="m61.35,170.75c14.92-15.4,24.41-35.66,24.56-57.08,0-.36,1.19-22.74,1.19-35.23,0-1.86-1.42-3.91-3.2-4.44-4.85-1.44-8.61,2.82-10.99,6.19-3.01,4.26-6.14,15.2-6.85,20.36-.59,4.33-1.23,8.63-1.59,12.95-.5,5.91-1.76,11.77-3.59,17.41-4.22,13-11.76,25.28-22.91,33.43-9.55,6.98-21.15,10.24-32.92,10.24-2.82.12-5.06,2.44-5.06,5.27v11.38c0,2.53,2.07,4.6,4.6,4.54,21.48-.54,41.66-9.44,56.75-25.01Z"/>
        <path class="cls-1" d="m55.08,57.07c-14.92,15.4-24.41,35.66-24.56,57.08,0,.36,0,20.56,0,33.08,0,1.59,1.17,3.46,2.65,4.03,5.12,1.95,9.07-2.51,11.54-6,3.01-4.26,4.95-12.82,5.66-17.99.59-4.33,1.23-8.63,1.59-12.95.5-5.91,1.76-11.77,3.59-17.41,4.22-13,11.76-25.28,22.91-33.43,9.55-6.98,21.15-10.24,32.92-10.24,2.82-.12,5.06-2.44,5.06-5.27v-11.68c0-2.37-1.94-4.3-4.3-4.25-21.59.46-41.89,9.38-57.05,25.02Z"/>
        <path class="cls-1" d="m111.02,0c-29.68.74-57.52,12.91-78.41,34.25C11.68,55.65.1,83.87,0,113.75v44.71c0,3.03,2.56,5.44,5.59,5.26h0c4.04-.24,7.92-.92,11.55-2.02h0c2.22-.68,3.74-2.72,3.74-5.04v-42.93c.07-24.35,9.49-47.37,26.54-64.83,17.01-17.42,39.69-27.37,63.88-28.04h0c2.85-.08,5.13-2.41,5.13-5.27V5.27C116.42,2.31,113.98-.07,111.02,0h0Z"/>
      </g>
    </g>
  </g>
</svg>