<?xml version="1.0" encoding="UTF-8"?>
<svg id="Layer_2" data-name="Layer 2" xmlns="http://www.w3.org/2000/svg" viewBox="0 0 132.73 259.29">
  <defs>
    <style>
      .cls-1 {
        fill: #4b73f2;
        stroke-width: 0px;
      }
    </style>
  </defs>
  <g id="Layer_1-2" data-name="Layer 1">
    <g>
      <path class="cls-1" d="m113.2,74.94h0c-2.53.77-4.26,3.1-4.26,5.75,0,12.74,0,48.46,0,49.1-.2,27.69-11.02,53.89-30.46,73.77-19.39,19.83-45.19,31.17-72.63,31.93h0c-3.25.09-5.84,2.75-5.84,6.01v11.78c0,3.38,2.78,6.09,6.16,6.01h0c33.73-.85,65.41-14.72,89.23-39.07,23.85-24.39,37.12-56.57,37.34-90.65v-50.94c0-3.46-2.91-6.21-6.37-6h0c-4.61.28-9.04,1.05-13.16,2.31Z"/>
      <path class="cls-1" d="m69.94,194.66c17.01-17.55,27.83-40.66,28-65.08,0-.41,1.36-25.92,1.36-40.17,0-2.12-1.62-4.46-3.65-5.06-5.53-1.65-9.82,3.22-12.52,7.06-3.43,4.86-7,17.33-7.8,23.22-.67,4.93-1.4,9.84-1.82,14.77-.57,6.74-2,13.41-4.09,19.84-4.81,14.82-13.41,28.82-26.12,38.11-10.89,7.96-24.12,11.67-37.53,11.67-3.22.13-5.76,2.78-5.76,6v12.98c0,2.89,2.36,5.25,5.25,5.18,24.49-.62,47.5-10.77,64.69-28.52Z"/>
      <path class="cls-1" d="m62.79,65.06c-17.01,17.55-27.83,40.66-28,65.08,0,.42,0,23.44,0,37.72,0,1.81,1.33,3.94,3.02,4.59,5.83,2.23,10.34-2.86,13.15-6.84,3.43-4.86,5.65-14.62,6.45-20.51.67-4.93,1.4-9.84,1.82-14.77.57-6.74,2-13.41,4.09-19.84,4.81-14.82,13.41-28.82,26.12-38.11,10.89-7.96,24.12-11.67,37.53-11.67,3.22-.13,5.76-2.78,5.76-6v-13.32c0-2.7-2.21-4.9-4.9-4.84-24.62.53-47.76,10.69-65.03,28.52Z"/>
      <path class="cls-1" d="m126.57,0C92.74.85,60.99,14.71,37.18,39.05,13.32,63.44.11,95.62,0,129.69v50.98c0,3.46,2.91,6.21,6.37,6h0c4.6-.28,9.03-1.05,13.16-2.31h0c2.53-.77,4.26-3.1,4.26-5.75v-48.94c.08-27.76,10.82-54,30.26-73.91,19.39-19.85,45.25-31.21,72.83-31.97h0c3.25-.09,5.84-2.75,5.84-6.01V6.01c0-3.38-2.78-6.09-6.16-6.01h0Z"/>
    </g>
  </g>
</svg>